<mxfile>
    <diagram id="qjMeRCaMQ4X0nLgffD23" name="Page-1">
        <mxGraphModel dx="1958" dy="393" grid="1" gridSize="10" guides="1" tooltips="1" connect="1" arrows="1" fold="1" page="1" pageScale="1" pageWidth="827" pageHeight="1169" math="0" shadow="0">
            <root>
                <mxCell id="0"/>
                <mxCell id="1" parent="0"/>
                <mxCell id="103" value="&lt;font color=&quot;#006666&quot;&gt;DIGITAL OCEAN CLOUD&lt;/font&gt;" style="whiteSpace=wrap;html=1;fillColor=none;align=left;labelPosition=right;verticalLabelPosition=top;verticalAlign=bottom;spacing=0;spacingLeft=-100;dashed=1;labelBackgroundColor=#ffffff;fontColor=#000000;rounded=0;strokeColor=#006666;" parent="1" vertex="1">
                    <mxGeometry x="-140" y="420" width="1130" height="610" as="geometry"/>
                </mxCell>
                <mxCell id="113" value="&lt;font color=&quot;#666600&quot;&gt;TERRAFORM&lt;/font&gt;" style="whiteSpace=wrap;html=1;fillColor=none;align=left;labelPosition=right;verticalLabelPosition=top;verticalAlign=bottom;spacing=0;spacingLeft=-100;dashed=1;labelBackgroundColor=#ffffff;rounded=1;fontColor=#FFFF66;strokeColor=#666600;" parent="1" vertex="1">
                    <mxGeometry x="100" y="470" width="360" height="510" as="geometry"/>
                </mxCell>
                <mxCell id="92" value="" style="group;labelBackgroundColor=#ffffff;fontColor=#000000;rounded=1;" parent="1" vertex="1" connectable="0">
                    <mxGeometry x="130" y="500" width="230" height="200" as="geometry"/>
                </mxCell>
                <mxCell id="86" value="&lt;font&gt;Managed Kubernetes&lt;/font&gt;" style="whiteSpace=wrap;html=1;fillColor=none;align=left;labelPosition=right;verticalLabelPosition=top;verticalAlign=bottom;spacing=0;spacingLeft=-100;dashed=1;labelBackgroundColor=#ffffff;rounded=1;strokeColor=#0000FF;fontColor=#0000FF;" parent="92" vertex="1">
                    <mxGeometry width="190" height="200" as="geometry"/>
                </mxCell>
                <mxCell id="89" value="&lt;b&gt;default-node-pool&lt;/b&gt;&lt;br&gt;(1 minimal node)" style="whiteSpace=wrap;html=1;labelBackgroundColor=#ffffff;fontColor=#000000;fillColor=#FFFFFF;strokeColor=#000000;rounded=1;" parent="92" vertex="1">
                    <mxGeometry x="40" y="120" width="120" height="50" as="geometry"/>
                </mxCell>
                <mxCell id="90" value="app-node-pool&lt;br&gt;(2+ nodes)" style="whiteSpace=wrap;html=1;labelBackgroundColor=#ffffff;fontColor=#000000;fillColor=#FFFFFF;strokeColor=#000000;rounded=1;" parent="92" vertex="1">
                    <mxGeometry x="40" y="40" width="120" height="50" as="geometry"/>
                </mxCell>
                <mxCell id="91" value="" style="group;labelBackgroundColor=#ffffff;rounded=1;fontColor=#FF3333;" parent="1" vertex="1" connectable="0">
                    <mxGeometry x="140" y="820" width="290" height="150" as="geometry"/>
                </mxCell>
                <mxCell id="84" value="&lt;font color=&quot;#990000&quot;&gt;Managed Database&lt;/font&gt;" style="whiteSpace=wrap;html=1;fillColor=none;align=left;labelPosition=right;verticalLabelPosition=top;verticalAlign=bottom;spacing=0;spacingLeft=-100;dashed=1;strokeColor=#FF3333;labelBackgroundColor=#ffffff;fontColor=#000000;rounded=1;" parent="91" vertex="1">
                    <mxGeometry width="290" height="150" as="geometry"/>
                </mxCell>
                <mxCell id="82" value="&lt;b&gt;MySQL 8&lt;/b&gt;&lt;br&gt;example-production-mysql" style="shape=cylinder3;boundedLbl=1;backgroundOutline=1;size=15;html=1;labelPosition=center;verticalLabelPosition=bottom;align=center;verticalAlign=top;labelBackgroundColor=#ffffff;fontColor=#000000;fillColor=#FFFFFF;strokeColor=#000000;rounded=1;" parent="91" vertex="1">
                    <mxGeometry x="51" y="25" width="60" height="80" as="geometry"/>
                </mxCell>
                <mxCell id="93" value="&lt;b&gt;Redis 6&lt;/b&gt;&lt;br&gt;example-production-redis" style="shape=cylinder3;boundedLbl=1;backgroundOutline=1;size=15;html=1;labelPosition=center;verticalLabelPosition=bottom;align=center;verticalAlign=top;labelBackgroundColor=#ffffff;fontColor=#000000;fillColor=#FFFFFF;strokeColor=#000000;rounded=1;" parent="91" vertex="1">
                    <mxGeometry x="191" y="25" width="60" height="80" as="geometry"/>
                </mxCell>
                <mxCell id="94" value="VPC (networking) example-production-vpc" style="shape=link;html=1;width=34.16666666666667;labelBackgroundColor=#ffffff;fontColor=#000000;strokeColor=#666600;" parent="1" edge="1">
                    <mxGeometry width="100" relative="1" as="geometry">
                        <mxPoint x="30" y="760" as="sourcePoint"/>
                        <mxPoint x="780" y="760" as="targetPoint"/>
                    </mxGeometry>
                </mxCell>
                <mxCell id="95" style="edgeStyle=orthogonalEdgeStyle;orthogonalLoop=1;jettySize=auto;html=1;exitX=0.25;exitY=0;exitDx=0;exitDy=0;labelBackgroundColor=#ffffff;fontColor=#000000;" parent="1" source="84" edge="1">
                    <mxGeometry relative="1" as="geometry">
                        <mxPoint x="280" y="780" as="targetPoint"/>
                    </mxGeometry>
                </mxCell>
                <mxCell id="97" style="edgeStyle=orthogonalEdgeStyle;orthogonalLoop=1;jettySize=auto;html=1;labelBackgroundColor=#ffffff;fontColor=#000000;" parent="1" source="86" edge="1">
                    <mxGeometry relative="1" as="geometry">
                        <mxPoint x="245" y="740" as="targetPoint"/>
                    </mxGeometry>
                </mxCell>
                <mxCell id="101" value="&lt;b&gt;Terraform&lt;/b&gt;&lt;br&gt;pull/push state" style="edgeStyle=orthogonalEdgeStyle;orthogonalLoop=1;jettySize=auto;html=1;entryX=0.5;entryY=0;entryDx=0;entryDy=0;entryPerimeter=0;labelBackgroundColor=#ffffff;fontColor=#000000;" parent="1" target="100" edge="1">
                    <mxGeometry relative="1" as="geometry">
                        <mxPoint x="140" y="330" as="sourcePoint"/>
                    </mxGeometry>
                </mxCell>
                <mxCell id="107" value="&lt;font&gt;&lt;b&gt;Terraform&lt;/b&gt;&lt;br&gt;manage resources&lt;/font&gt;" style="edgeStyle=orthogonalEdgeStyle;orthogonalLoop=1;jettySize=auto;html=1;entryX=0.113;entryY=-0.003;entryDx=0;entryDy=0;entryPerimeter=0;labelBackgroundColor=#ffffff;fontColor=#000000;" parent="1" source="98" target="113" edge="1">
                    <mxGeometry relative="1" as="geometry">
                        <mxPoint x="140" y="398" as="targetPoint"/>
                        <Array as="points">
                            <mxPoint x="140" y="300"/>
                            <mxPoint x="140" y="398"/>
                        </Array>
                    </mxGeometry>
                </mxCell>
                <mxCell id="126" value="&lt;b&gt;Ansible&lt;/b&gt;" style="edgeStyle=orthogonalEdgeStyle;orthogonalLoop=1;jettySize=auto;html=1;entryX=0.5;entryY=0;entryDx=0;entryDy=0;labelBackgroundColor=#ffffff;fontColor=#000000;" parent="1" source="98" target="110" edge="1">
                    <mxGeometry relative="1" as="geometry"/>
                </mxCell>
                <mxCell id="127" value="&lt;b&gt;kubectl&lt;/b&gt;" style="edgeStyle=orthogonalEdgeStyle;orthogonalLoop=1;jettySize=auto;html=1;labelBackgroundColor=#ffffff;fontColor=#000000;" parent="1" source="98" target="130" edge="1">
                    <mxGeometry x="0.8161" relative="1" as="geometry">
                        <mxPoint as="offset"/>
                    </mxGeometry>
                </mxCell>
                <mxCell id="98" value="Admin (TODO Bamboo)" style="shape=umlActor;verticalLabelPosition=bottom;verticalAlign=top;html=1;outlineConnect=0;labelBackgroundColor=#ffffff;fontColor=#000000;rounded=1;" parent="1" vertex="1">
                    <mxGeometry x="310" y="200" width="30" height="60" as="geometry"/>
                </mxCell>
                <mxCell id="100" value="&lt;b&gt;DO Spaces&lt;/b&gt;&lt;br&gt;example-production-terraform-state" style="shape=cylinder3;boundedLbl=1;backgroundOutline=1;size=15;html=1;labelPosition=center;verticalLabelPosition=bottom;align=center;verticalAlign=top;labelBackgroundColor=#ffffff;fontColor=#000000;fillColor=#FFFFFF;strokeColor=#000000;rounded=1;" parent="1" vertex="1">
                    <mxGeometry x="-70" y="500" width="60" height="80" as="geometry"/>
                </mxCell>
                <mxCell id="112" style="edgeStyle=orthogonalEdgeStyle;orthogonalLoop=1;jettySize=auto;html=1;labelBackgroundColor=#ffffff;fontColor=#000000;" parent="1" source="110" edge="1">
                    <mxGeometry relative="1" as="geometry">
                        <mxPoint x="540" y="740" as="targetPoint"/>
                    </mxGeometry>
                </mxCell>
                <mxCell id="110" value="&lt;b&gt;Graylog&lt;/b&gt;&lt;br&gt;(single droplet)" style="whiteSpace=wrap;html=1;labelBackgroundColor=#ffffff;fontColor=#000000;fillColor=#FFFFFF;strokeColor=#000000;rounded=1;" parent="1" vertex="1">
                    <mxGeometry x="480" y="650" width="120" height="40" as="geometry"/>
                </mxCell>
                <mxCell id="116" style="edgeStyle=orthogonalEdgeStyle;orthogonalLoop=1;jettySize=auto;html=1;labelBackgroundColor=#ffffff;fontColor=#000000;" parent="1" source="115" edge="1">
                    <mxGeometry relative="1" as="geometry">
                        <mxPoint x="695" y="740" as="targetPoint"/>
                    </mxGeometry>
                </mxCell>
                <mxCell id="115" value="&lt;b&gt;Load Balancer&lt;/b&gt;&lt;br&gt;example-production-loadbalancer" style="whiteSpace=wrap;html=1;labelBackgroundColor=#ffffff;fontColor=#000000;fillColor=#FFFFFF;strokeColor=#000000;rounded=1;" parent="1" vertex="1">
                    <mxGeometry x="610" y="650" width="170" height="40" as="geometry"/>
                </mxCell>
                <mxCell id="117" value="&lt;b&gt;app-node-pool&lt;/b&gt;&lt;br&gt;(2+ nodes)" style="whiteSpace=wrap;html=1;labelBackgroundColor=#ffffff;fontColor=#000000;fillColor=#FFFFFF;strokeColor=#000000;rounded=1;" parent="1" vertex="1">
                    <mxGeometry x="180" y="550" width="120" height="50" as="geometry"/>
                </mxCell>
                <mxCell id="134" style="edgeStyle=orthogonalEdgeStyle;orthogonalLoop=1;jettySize=auto;html=1;entryX=0.5;entryY=0;entryDx=0;entryDy=0;labelBackgroundColor=#ffffff;fontColor=#000000;" parent="1" source="130" target="115" edge="1">
                    <mxGeometry relative="1" as="geometry"/>
                </mxCell>
                <mxCell id="130" value="Kubernetes&lt;br&gt;resources (ingress, etc)" style="shape=cube;whiteSpace=wrap;html=1;boundedLbl=1;backgroundOutline=1;darkOpacity=0.05;darkOpacity2=0.1;rounded=1;labelBackgroundColor=#ffffff;strokeColor=#000000;fillColor=#FFFFFF;fontColor=#000000;" parent="1" vertex="1">
                    <mxGeometry x="617.5" y="310" width="155" height="60" as="geometry"/>
                </mxCell>
                <mxCell id="135" style="edgeStyle=orthogonalEdgeStyle;orthogonalLoop=1;jettySize=auto;html=1;entryX=1;entryY=0.5;entryDx=0;entryDy=0;labelBackgroundColor=#ffffff;fontColor=#000000;" parent="1" source="132" target="115" edge="1">
                    <mxGeometry relative="1" as="geometry"/>
                </mxCell>
                <mxCell id="132" value="&lt;b&gt;DNS&lt;/b&gt;&lt;br&gt;domain.example.ru" style="ellipse;shape=cloud;whiteSpace=wrap;html=1;rounded=1;labelBackgroundColor=#ffffff;strokeColor=#000000;fillColor=#FFFFFF;fontColor=#000000;" parent="1" vertex="1">
                    <mxGeometry x="830" y="630" width="130" height="80" as="geometry"/>
                </mxCell>
            </root>
        </mxGraphModel>
    </diagram>
</mxfile>